<?xml version="1.0" standalone="no"?><!DOCTYPE svg PUBLIC "-//W3C//DTD SVG 1.1//EN" "http://www.w3.org/Graphics/SVG/1.1/DTD/svg11.dtd"><svg class="icon" width="16px" height="16.00px" viewBox="0 0 1024 1024" version="1.1" xmlns="http://www.w3.org/2000/svg"><path d="M0 0h1024v1024H0z" fill="#FFFFFF" fill-opacity=".01" /><path d="M542.612211 128.943158L831.959579 294.4A60.294737 60.294737 0 0 1 862.315789 346.570105v330.442106c0 21.423158-11.668211 41.431579-30.35621 52.183578L542.612211 894.558316a61.332211 61.332211 0 0 1-30.504422 8.030316l0.026948 0.14821a61.426526 61.426526 0 0 1-30.356211-8.030316l-96.606315-56.589473c-14.443789-7.989895-7.410526-10.819368-2.640843-12.436211 19.240421-6.669474 23.147789-8.178526 43.681685-19.712 2.155789-1.212632 4.985263-0.794947 7.194947 0.498526l74.24 43.573895a9.889684 9.889684 0 0 0 8.96 0l289.414737-165.295158a9.013895 9.013895 0 0 0 4.432842-7.733894V346.570105a9.175579 9.175579 0 0 0-4.486737-7.882105L516.661895 173.541053a8.986947 8.986947 0 0 0-8.906106 0L218.502737 338.688a9.108211 9.108211 0 0 0-4.581053 7.814737v330.442105c0 3.152842 1.738105 6.157474 4.486737 7.666526l79.252211 45.298527c43.034947 21.288421 69.335579-3.799579 69.335579-29.03579V374.743579a8.218947 8.218947 0 0 1 8.407578-8.245895h36.648422c4.581053 0 8.340211 3.584 8.34021 8.245895v326.278737c0 56.778105-31.299368 89.384421-85.706105 89.384421h-1.778527l-3.503157-0.026948c-14.551579-0.175158-28.577684-1.886316-61.44-17.893052l-75.924211-43.290948A60.429474 60.429474 0 0 1 161.684211 676.944842V346.502737c0-21.504 11.587368-41.579789 30.35621-52.183579L481.751579 128.943158c18.324211-10.253474 42.671158-10.253474 60.860632 0z m47.130947 228.971789c92.658526 0 138.590316 31.824842 144.384 100.20379a8.286316 8.286316 0 0 1-2.250105 6.373052 8.663579 8.663579 0 0 1-6.157474 2.654316h-37.591579a8.286316 8.286316 0 0 1-8.111158-6.453894c-9.067789-39.639579-30.935579-52.318316-90.408421-52.318316-66.586947 0-74.347789 22.932211-74.347789 40.138105 0 20.857263 9.135158 26.947368 98.96421 38.709895 88.966737 11.681684 131.206737 28.16 131.206737 90.031158 0 62.356211-52.601263 98.128842-144.303158 98.128842l0.404211-0.336842c-126.639158 0-153.195789-57.532632-153.19579-105.768421 0-4.581053 3.745684-8.232421 8.394105-8.232421h37.376a8.353684 8.353684 0 0 1 8.259369 7.006315c5.658947 37.685895 22.460632 56.697263 99.031579 56.697263 61.008842 0 86.945684-13.635368 86.945684-45.635368 0-18.418526-7.397053-32.107789-102.157474-41.283368-79.252211-7.747368-128.229053-25.020632-128.229052-87.740632 0-57.775158 49.273263-92.173474 131.786105-92.173474z" fill="#689F63" /></svg>