<?xml version="1.0" standalone="no"?><!DOCTYPE svg PUBLIC "-//W3C//DTD SVG 1.1//EN" "http://www.w3.org/Graphics/SVG/1.1/DTD/svg11.dtd"><svg class="icon" width="16px" height="14.38px" viewBox="0 0 1139 1024" version="1.1" xmlns="http://www.w3.org/2000/svg"><path d="M3.356939 510.886957c0 85.548522 83.536139 165.407165 215.231444 210.423095-26.298991 132.394296-4.7104 239.108452 67.388104 280.687305 74.106435 42.74087 184.511443 13.156174 289.302261-78.447305 102.146226 87.903722 205.378783 122.497113 277.414956 80.798052 74.039652-42.861078 96.554296-156.810017 69.5296-293.340382 137.171478-45.349843 213.900243-113.445843 213.900244-200.120765 0-83.562852-83.687513-155.8528-213.610852-200.57934 29.094957-142.17127 4.44327-246.294261-70.642644-289.591652-72.387896-41.743583-176.822539-5.360417-280.469148 84.840626C463.569252 9.817043 360.167513-19.411478 285.161739 24.006122 212.840626 65.869913 192.2048 174.525217 218.588383 309.368209 91.336348 353.734122 3.356939 427.66247 3.356939 510.886957z" fill="#FFFFFF" /><path d="M894.998261 354.722504a673.898852 673.898852 0 0 0-32.385113-10.204382 612.173913 612.173913 0 0 0 5.004243-22.087235c24.51367-118.997704 8.485843-214.861913-46.249182-246.418922-52.477774-30.265878-138.306783 1.29113-224.990609 76.724313a672.883757 672.883757 0 0 0-25.04793 22.986574 612.498922 612.498922 0 0 0-16.66894-15.395617c-90.846609-80.664487-181.906922-114.652383-236.584069-83.001878-52.4288 30.35047-67.957983 120.475826-45.888557 233.249391a671.877565 671.877565 0 0 0 7.435131 33.320069 667.269565 667.269565 0 0 0-37.233531 11.709218c-106.504904 37.13113-174.525217 95.329948-174.525217 155.692522 0 62.348243 73.015652 124.883478 183.954922 162.798191a571.837217 571.837217 0 0 0 27.202782 8.503652 658.089183 658.089183 0 0 0-7.902608 35.915687c-21.040974 110.814609-4.608 198.802922 47.682782 228.9664 54.009322 31.142957 144.655583-0.868174 232.924383-78.024348 6.976557-6.099478 13.979826-12.568487 20.992-19.349148a660.435478 660.435478 0 0 0 27.193878 24.811966c85.499548 73.572174 169.939478 103.28153 222.185739 73.037913 53.960348-31.236452 71.493009-125.760557 48.724592-240.764661-1.736348-8.784139-3.762087-17.75527-6.032696-26.891131 6.366609-1.878817 12.613009-3.819965 18.708035-5.841252 115.329113-38.208557 190.3616-99.98247 190.3616-163.163269 0-60.58073-70.210783-119.171339-178.861635-156.574053z" fill="#53C1DE" /><path d="M869.981496 633.669009c-5.498435 1.820939-11.143791 3.579548-16.896 5.28473-12.733217-40.30553-29.918609-83.166609-50.941774-127.443478 20.065948-43.230609 36.583513-85.539617 48.960556-125.586922 10.288974 2.982957 20.279652 6.121739 29.905252 9.438609 93.094957 32.042296 149.877983 79.426783 149.877983 115.934609 0 38.889739-61.328696 89.377391-160.901565 122.372452z m-41.316174 81.871026c10.066365 50.85273 11.504417 96.83033 4.835061 132.77273-5.992626 32.29607-18.040209 53.826783-32.937183 62.450644-31.70393 18.351861-99.506087-5.502887-172.619687-68.421009a616.136348 616.136348 0 0 1-25.297252-23.062261c28.346991-31.004939 56.676174-67.049739 84.324174-107.074782 48.635548-4.314157 94.581983-11.370852 136.249878-21.000905 2.048 8.281043 3.873391 16.397357 5.445009 24.335583z m-417.836522 192.053426c-30.973774 10.938991-55.64327 11.250643-70.5536 2.653496-31.735096-18.298435-44.922435-88.954435-26.9312-183.718957a616.657252 616.657252 0 0 1 7.346087-33.400209c41.20487 9.1136 86.817391 15.671652 135.568696 19.625183 27.830539 39.165774 56.978922 75.166052 86.354365 106.691896a529.198748 529.198748 0 0 1-19.166609 17.648417c-39.032209 34.121461-78.144557 58.323478-112.613287 70.500174z m-145.109704-274.16487c-49.054052-16.766887-89.564383-38.555826-117.332592-62.330434-24.949983-21.370435-37.549635-42.585043-37.549634-59.8016 0-36.628035 54.614817-83.3536 145.701843-115.110957a620.080974 620.080974 0 0 1 34.624557-10.89447c12.590748 40.946643 29.103861 83.758748 49.031791 127.051687-20.186157 43.938504-36.935235 87.431791-49.641739 128.85927a529.399096 529.399096 0 0 1-24.834226-7.773496z m48.644452-331.108174c-18.908383-96.62553-6.353252-169.51207 25.243826-187.8016 33.658435-19.482713 108.076522 8.298852 186.514922 77.944209 5.013148 4.452174 10.048557 9.1136 15.092869 13.935304-29.22407 31.383374-58.105322 67.11207-85.695443 106.050783-47.313252 4.385391-92.605217 11.42873-134.241948 20.862887a630.093913 630.093913 0 0 1-6.914226-30.996035z m433.940035 107.15047a1366.737252 1366.737252 0 0 0-30.590887-50.309565c32.100174 4.051478 62.851339 9.438609 91.728139 16.032278-8.668383 27.786017-19.473809 56.840904-32.198122 86.625948a1497.800348 1497.800348 0 0 0-28.93913-52.348661z m-176.960557-172.361461c19.821078 21.472835 39.673322 45.452243 59.200557 71.466296a1265.508174 1265.508174 0 0 0-118.899757-0.026713c19.545043-25.773635 39.56647-49.717426 59.6992-71.439583z m-178.095861 172.655304a1269.938087 1269.938087 0 0 0-28.395965 52.023653c-12.515061-29.682643-23.222539-58.866643-31.966609-87.048905 28.703165-6.424487 59.311861-11.6736 91.202783-15.658295a1263.482435 1263.482435 0 0 0-30.840209 50.683547z m31.757357 256.814748c-32.946087-3.677496-64.017809-8.659478-92.71207-14.905878 8.882087-28.680904 19.82553-58.492661 32.607722-88.811965a1262.164591 1262.164591 0 0 0 28.520626 52.054817 1270.071652 1270.071652 0 0 0 31.583722 51.663026z m147.527235 121.940592c-20.368696-21.980383-40.683965-46.289252-60.527305-72.43687 19.260104 0.75687 38.898643 1.139757 58.857739 1.139757 20.506713 0 40.777461-0.458574 60.727652-1.349009-19.589565 26.624-39.370574 50.968487-59.058086 72.646122z m205.120556-227.20334c13.445565 30.648765 24.7808 60.300243 33.783096 88.495861-29.170643 6.656-60.66087 12.016417-93.842922 15.996661a1502.773426 1502.773426 0 0 0 30.88473-51.191095 1365.178991 1365.178991 0 0 0 29.175096-53.301427z m-66.404174 31.833044a1409.015096 1409.015096 0 0 1-48.261565 77.868522c-29.847374 2.132591-60.692035 3.232278-92.124383 3.232278-31.303235 0-61.756104-0.975026-91.082574-2.876104A1218.996313 1218.996313 0 0 1 430.614261 593.385739a1208.026157 1208.026157 0 0 1-42.918957-81.056278 1219.290157 1219.290157 0 0 1 42.789844-81.1008v0.008904a1207.661078 1207.661078 0 0 1 48.778017-77.654817 1217.59833 1217.59833 0 0 1 183.376139 0.026713 1294.264765 1294.264765 0 0 1 48.470818 77.392139 1408.747965 1408.747965 0 0 1 43.368626 80.717913 1294.718887 1294.718887 0 0 1-43.226157 81.430261z m88.656139-479.908731c33.685148 19.429287 46.787896 97.774191 25.622261 200.517009a567.763478 567.763478 0 0 1-4.523409 19.999165c-41.734678-9.630052-87.057809-16.798052-134.509078-21.250226-27.643548-39.36167-56.284383-75.152696-85.036522-106.130921a631.852522 631.852522 0 0 1 23.133496-21.219061c74.271165-64.636661 143.685009-90.156522 175.313252-71.915966z" fill="#FFFFFF" /><path d="M570.862191 421.465043c49.615026 0 89.831513 40.220939 89.831513 89.831514 0 49.615026-40.216487 89.835965-89.831513 89.835965-49.610574 0-89.831513-40.220939-89.831513-89.835965 0-49.610574 40.220939-89.831513 89.831513-89.831514" fill="#53C1DE" /></svg>