<?xml version="1.0" standalone="no"?><!DOCTYPE svg PUBLIC "-//W3C//DTD SVG 1.1//EN" "http://www.w3.org/Graphics/SVG/1.1/DTD/svg11.dtd"><svg class="icon" width="16px" height="16.00px" viewBox="0 0 1024 1024" version="1.1" xmlns="http://www.w3.org/2000/svg"><path d="M636.416 759.808V440.32c0-40.448 32.768-73.216 73.216-73.216H844.8c40.448 0 73.216 32.768 73.216 73.216v319.488c0 40.448-32.768 73.216-73.216 73.216h-135.168c-40.448 0-73.216-33.28-73.216-73.216z" fill="#FFBA40" /><path d="M844.8 856.576h-135.168c-53.76 0-97.28-43.52-97.28-97.28V440.32c0-53.76 43.52-97.28 97.28-97.28H844.8c53.76 0 97.28 43.52 97.28 97.28v319.488c0 53.248-43.52 96.768-97.28 96.768z m-135.168-465.92c-27.136 0-49.152 22.016-49.152 49.152v319.488c0 27.136 22.016 49.152 49.152 49.152H844.8c27.136 0 49.152-22.016 49.152-49.152V440.32c0-27.136-22.016-49.152-49.152-49.152h-135.168z" fill="#333333" /><path d="M297.984 971.264c-43.008 0-77.824-34.816-77.824-77.824V173.056c0-43.008 34.816-77.824 77.824-77.824h425.472c43.008 0 77.824 34.816 77.824 77.824v720.384c0 43.008-34.816 77.824-77.824 77.824H297.984z" fill="#FFBA40" /><path d="M723.456 118.784c29.696 0 54.272 24.064 54.272 54.272v720.384c0 29.696-24.064 54.272-54.272 54.272H297.984c-29.696 0-54.272-24.064-54.272-54.272V173.056c0-29.696 24.064-54.272 54.272-54.272h425.472m0-48.128H297.984c-56.32 0-101.888 45.568-101.888 101.888v720.384c0 56.32 45.568 101.888 101.888 101.888h425.472c56.32 0 101.888-45.568 101.888-101.888V173.056c0-56.32-45.568-102.4-101.888-102.4z" fill="#333333" /><path d="M340.992 799.232c-13.312 0-24.064-10.752-24.064-24.064v-563.2c0-13.312 10.752-24.064 24.064-24.064h339.456c13.312 0 24.064 10.752 24.064 24.064v563.2c0 13.312-10.752 24.064-24.064 24.064H340.992z" fill="#27C18F" /><path d="M680.448 211.968v563.2H340.992v-563.2h339.456m0-47.616H340.992c-26.624 0-48.128 21.504-48.128 48.128v563.2c0 26.624 21.504 48.128 48.128 48.128h339.456c26.624 0 48.128-21.504 48.128-48.128v-563.2c0-26.624-21.504-48.128-48.128-48.128z" fill="#333333" /><path d="M471.04 887.808h78.848" fill="#FFBA40" /><path d="M549.888 911.872H471.04c-13.312 0-24.064-10.752-24.064-24.064s10.752-24.064 24.064-24.064h78.848c13.312 0 24.064 10.752 24.064 24.064s-10.752 24.064-24.064 24.064z" fill="#333333" /><path d="M600.576 290.816m-34.816 0a34.816 34.816 0 1 0 69.632 0 34.816 34.816 0 1 0-69.632 0Z" fill="#333333" /><path d="M280.064 486.4H207.872c-31.232 0-56.832-25.6-56.832-56.832s25.6-56.832 56.832-56.832h72.192c31.232 0 56.832 25.6 56.832 56.832S311.296 486.4 280.064 486.4z" fill="#FFBA40" /><path d="M280.064 510.464H207.872c-44.544 0-80.896-36.352-80.896-80.896s36.352-80.896 80.896-80.896h72.192c44.544 0 80.896 36.352 80.896 80.896s-36.352 80.896-80.896 80.896zM207.872 397.312c-17.92 0-32.768 14.848-32.768 32.768s14.848 32.768 32.768 32.768h72.192c17.92 0 32.768-14.848 32.768-32.768s-14.848-32.768-32.768-32.768H207.872z" fill="#333333" /><path d="M765.44 486.4h-72.192c-31.232 0-56.832-25.6-56.832-56.832s25.6-56.832 56.832-56.832h72.192c31.232 0 56.832 25.6 56.832 56.832-0.512 31.232-26.112 56.832-56.832 56.832z" fill="#FFBA40" /><path d="M765.44 510.464h-72.192c-44.544 0-80.896-36.352-80.896-80.896s36.352-80.896 80.896-80.896h72.192c44.544 0 80.896 36.352 80.896 80.896s-36.864 80.896-80.896 80.896z m-72.192-113.152c-17.92 0-32.768 14.848-32.768 32.768s14.848 32.768 32.768 32.768h72.192c17.92 0 32.768-14.848 32.768-32.768s-14.848-32.768-32.768-32.768h-72.192z" fill="#333333" /><path d="M280.064 600.064H207.872c-31.232 0-56.832-25.6-56.832-56.832S176.64 486.4 207.872 486.4h72.192c31.232 0 56.832 25.6 56.832 56.832s-25.6 56.832-56.832 56.832z" fill="#FFBA40" /><path d="M280.064 623.616H207.872c-44.544 0-80.896-36.352-80.896-80.896 0-44.544 36.352-80.896 80.896-80.896h72.192c44.544 0 80.896 36.352 80.896 80.896-0.512 45.056-36.352 80.896-80.896 80.896zM207.872 510.464c-17.92 0-32.768 14.848-32.768 32.768 0 17.92 14.848 32.768 32.768 32.768h72.192c17.92 0 32.768-14.848 32.768-32.768 0-17.92-14.848-32.768-32.768-32.768H207.872z" fill="#333333" /><path d="M280.064 713.216H207.872c-31.232 0-56.832-25.6-56.832-56.832s25.6-56.832 56.832-56.832h72.192c31.232 0 56.832 25.6 56.832 56.832s-25.6 56.832-56.832 56.832z" fill="#FFBA40" /><path d="M280.064 737.28H207.872c-44.544 0-80.896-36.352-80.896-80.896 0-44.544 36.352-80.896 80.896-80.896h72.192c44.544 0 80.896 36.352 80.896 80.896-0.512 44.544-36.352 80.896-80.896 80.896z m-72.192-113.664c-17.92 0-32.768 14.848-32.768 32.768 0 17.92 14.848 32.768 32.768 32.768h72.192c17.92 0 32.768-14.848 32.768-32.768 0-17.92-14.848-32.768-32.768-32.768H207.872z" fill="#333333" /><path d="M280.064 826.368H207.872c-31.232 0-56.832-25.6-56.832-56.832s25.6-56.832 56.832-56.832h72.192c31.232 0 56.832 25.6 56.832 56.832s-25.6 56.832-56.832 56.832z" fill="#FFBA40" /><path d="M280.064 850.432H207.872c-44.544 0-80.896-36.352-80.896-80.896s36.352-80.896 80.896-80.896h72.192c44.544 0 80.896 36.352 80.896 80.896s-36.352 80.896-80.896 80.896zM207.872 737.28c-17.92 0-32.768 14.848-32.768 32.768s14.848 32.768 32.768 32.768h72.192c17.92 0 32.768-14.848 32.768-32.768s-14.848-32.768-32.768-32.768H207.872z" fill="#333333" /></svg>